PathFileType	4	(X/Y/Z)	D:\TRACE\spot_10-12-23\spot_arm_body_motion_1_4-v60.trc
DataRate	CameraRate	NumFrames	NumMarkers	Units	OrigDataRate	OrigDataStartFrame	OrigNumFrames
100.00	100.00	      25	9	mm	100.00	876	      7000
Frame#	Time	front left toe			Front right toe			aft left toe			aft right toe			Arm			FL body			FR body			AL Body			AR Body			
		X1	Y1	Z1	X2	Y2	Z2	X3	Y3	Z3	X4	Y4	Z4	X5	Y5	Z5	X6	Y6	Z6	X7	Y7	Z7	X8	Y8	Z8	X9	Y9	Z9	

876	8.750	-79.45827	9.06272	-434.16809	404.98904	15.40627	-437.48029	-72.99716	21.57691	155.33492	381.69067	83.02216	60.75764	205.76596	752.50641	-750.41388	38.74899	591.15533	-467.51624	192.05582	594.39435	-461.16800	-4.56310	547.57458	412.38730	136.65387	544.51544	420.92404	
877	8.760	-79.86726	8.82362	-434.00137	404.83041	15.08197	-437.53760	-72.67145	22.20905	155.05798	383.98483	70.83151	67.98066	207.38132	750.36029	-753.47784	39.44444	589.99707	-468.06876	192.90208	592.85724	-461.96909	-3.55240	548.74786	412.22885	137.67862	545.46417	420.81775	
878	8.770	-80.36948	8.37335	-433.71234	404.90207	14.62402	-437.62424	-72.35578	22.93209	154.83472	379.49030	58.31794	82.38106	208.53546	749.14459	-755.99164	40.37148	588.33545	-469.12134	193.95410	590.97180	-462.32077	-2.74239	550.35724	411.53098	138.56731	546.95520	420.35431	
879	8.780	-80.95808	7.87071	-433.82446	404.89032	13.97903	-437.59741	-72.14307	23.47144	154.40982	369.71051	45.51290	103.93773	209.28629	748.47186	-757.76477	41.70124	586.32257	-469.82074	195.51976	589.11108	-463.39923	-1.74518	551.87219	410.76581	139.30949	548.46893	419.40613	
880	8.790	-81.06281	7.34486	-434.14252	405.30197	13.57556	-437.47592	-72.01790	24.10419	154.15100	352.61191	32.85655	130.85086	209.01918	748.34186	-759.02161	43.22816	584.26373	-470.89352	196.76691	587.08795	-464.33707	-1.17039	553.79285	409.80490	140.03207	550.02667	418.62564	
881	8.800	-81.26423	7.34990	-434.58917	404.93304	12.14251	-437.00021	-72.03574	24.40367	153.77084	339.69876	27.21851	148.50516	208.48541	748.83789	-759.69604	45.21840	582.38245	-471.72232	198.45795	584.81525	-464.56689	-0.97939	555.30389	409.02673	140.32523	551.71100	418.22940	
882	8.810	-80.63275	7.15160	-434.87436	405.21121	12.02680	-436.34613	-72.64160	23.88070	153.82794	337.72812	28.82694	144.06834	207.48689	749.78729	-760.13464	47.87023	580.42407	-472.13629	201.34457	583.13574	-464.62839	-2.20112	556.52618	408.54395	138.77310	553.31122	418.54486	
883	8.820	-80.80870	7.16495	-435.48801	405.54218	12.79393	-435.05222	-74.86884	22.66730	153.40175	338.09406	27.72788	144.55486	206.50322	751.23395	-759.86865	49.92905	579.71252	-472.47974	203.55280	582.10474	-464.50797	-2.63740	557.42468	408.17612	138.27321	554.21912	418.48154	
884	8.830	-81.70392	7.15379	-434.96176	404.24484	11.81230	-435.44092	-75.49334	22.55210	153.46527	337.03375	28.29278	144.59734	205.50064	753.13367	-759.11780	51.70582	578.99872	-472.92258	205.37872	580.88312	-464.53030	-3.06851	559.05865	407.66394	138.05547	555.22760	418.33066	
885	8.840	-81.82096	7.20050	-435.58160	404.09750	11.63068	-435.21671	-75.27915	22.86002	153.03363	336.10538	28.39942	144.70193	204.95654	755.18121	-758.23370	53.09869	578.62036	-473.37271	206.86218	580.31116	-464.93964	-3.23699	559.95837	407.01373	137.98003	555.91980	417.92920	
886	8.850	-81.98074	7.16341	-435.60425	404.38235	11.78105	-435.18439	-75.81847	22.96589	152.94026	336.35669	28.13498	144.69012	204.90004	756.87964	-756.95728	53.95874	579.07312	-473.71497	207.23978	580.51666	-464.78677	-2.46018	560.01752	406.58481	138.52744	555.95300	417.51227	
887	8.860	-82.37055	6.94488	-435.41147	404.05692	11.70990	-435.33969	-76.55185	23.01750	152.87946	336.18375	27.81266	144.38441	205.01019	758.33069	-755.87775	54.31016	579.81012	-474.06271	207.80472	581.44543	-465.59232	-1.35659	559.83569	406.40231	139.66753	555.80841	417.16986	
888	8.870	-82.95542	6.80420	-435.34134	403.54175	11.75545	-435.47864	-76.49883	23.24444	152.79390	335.87769	27.71477	144.08507	206.01030	759.52386	-754.60059	54.33168	580.97266	-474.46835	208.10272	582.82440	-466.08676	0.10983	559.50897	406.10178	141.12164	555.96277	416.88669	
889	8.880	-83.56483	6.65770	-435.34354	402.79962	11.85893	-436.01611	-76.41650	23.73734	152.76904	335.21375	27.02247	143.70050	207.15337	760.25214	-753.59497	54.21059	582.05634	-474.71313	208.00171	584.13409	-466.43619	1.71249	559.44781	405.84424	142.63545	555.78180	416.28540	
890	8.890	-84.09510	6.45182	-435.27713	401.95654	11.86878	-436.43393	-76.64833	24.09155	152.79199	335.78973	27.44869	143.88908	208.35316	760.45514	-752.76520	54.29803	583.25500	-474.86365	207.57536	585.31433	-466.61905	3.43923	559.39838	405.41214	144.33250	556.09680	415.76398	
891	8.900	-84.69264	6.26214	-435.38293	401.07172	11.10497	-436.52274	-77.02722	24.33337	152.74637	335.70789	27.57841	143.89262	209.19191	760.28967	-752.25677	54.24604	584.21942	-475.14444	207.78003	586.53247	-467.57956	4.51880	559.79071	405.48926	145.58484	556.46997	415.59549	
892	8.910	-85.22472	6.04853	-435.53268	400.93472	11.02712	-436.51575	-77.32960	24.49931	152.68211	335.01672	27.26119	143.61029	209.85051	759.72266	-751.79224	54.49839	585.10059	-475.39563	207.97998	587.58051	-468.20514	5.71405	560.18152	405.25351	146.67128	556.57129	414.81522	
893	8.920	-85.71059	6.03667	-435.76373	400.64316	10.81395	-436.62845	-77.70195	24.64227	152.60536	334.49826	27.25393	143.49979	210.13913	758.89355	-751.72510	54.85941	586.22119	-475.70636	208.41362	588.61694	-468.20151	6.65983	560.75659	404.94052	147.80818	557.32135	414.24728	
894	8.930	-86.05445	6.04039	-435.97964	400.65704	10.98349	-436.96851	-78.09509	24.74535	152.57475	333.97223	27.27394	143.30186	210.18344	757.88684	-751.76770	55.48124	587.17615	-476.18613	209.00087	589.75262	-468.95578	7.59978	561.38538	404.59555	148.92412	558.06348	414.14542	
895	8.940	-86.32586	6.05637	-436.10413	400.09274	10.61343	-437.02805	-78.56161	24.87305	152.42644	333.53766	27.26340	143.17122	209.90868	756.81537	-752.00903	56.18190	588.00854	-476.90472	209.92288	590.62250	-469.55276	8.33214	561.86371	403.78885	149.45879	558.80945	413.50662	
896	8.950	-86.90376	5.91952	-436.26831	399.31714	9.79877	-436.64282	-79.16793	24.91417	152.29327	333.40646	27.56143	143.38280	209.48744	755.71417	-752.34338	56.93648	588.73541	-477.45093	210.42441	591.12573	-470.30133	8.85482	562.78491	403.29196	150.01814	559.13910	412.61334	
897	8.960	-87.25517	5.44398	-436.40826	398.87979	9.38349	-436.65613	-79.85735	25.02671	152.11978	332.40375	27.11378	143.04044	208.92944	754.65369	-752.60040	57.73398	589.10822	-478.10153	211.31816	591.43597	-470.89224	9.24561	563.59564	402.65854	150.49132	559.89648	412.09882	
898	8.970	-87.79801	5.50884	-436.68781	398.25281	8.90206	-436.85379	-80.36874	25.08641	151.90846	331.74899	27.11690	142.98665	208.35774	753.86456	-753.11151	58.58604	589.36554	-478.82727	212.41350	591.76471	-471.54144	10.17065	564.08667	401.76208	151.04559	560.60406	411.27209	
899	8.980	-88.28522	5.44946	-436.80609	398.26346	9.00590	-437.13364	-80.53228	25.07975	151.81392	331.17853	27.08251	142.83154	208.07440	753.13000	-753.19818	59.48162	589.59204	-479.83832	212.91586	591.85815	-472.32654	10.29488	565.06219	400.96899	151.55733	561.32770	410.56390	
900	8.990	-88.96642	5.47756	-437.08047	397.52499	8.30068	-437.14209	-81.30336	25.46381	151.47144	330.71460	27.00764	142.76305	207.72510	752.67285	-753.65515	60.20192	589.61212	-480.49402	213.89137	591.88239	-473.43323	11.18980	565.64899	399.99271	152.29060	562.16095	409.76300	
